<?xml version="1.0" encoding="UTF-8"?>
<svg version="1.1" xmlns="http://www.w3.org/2000/svg" width="225" height="225">
<path d="M0 0 C74.25 0 148.5 0 225 0 C225 74.25 225 148.5 225 225 C150.75 225 76.5 225 0 225 C0 150.75 0 76.5 0 0 Z " fill="#E1E1E3" transform="translate(0,0)"/>
<path d="M0 0 C0.65484375 0.54398438 1.3096875 1.08796875 1.984375 1.6484375 C1.984375 4.6484375 1.984375 4.6484375 0.515625 6.45776367 C-0.1546875 7.11236572 -0.825 7.76696777 -1.515625 8.44140625 C-2.2375 9.15361328 -2.959375 9.86582031 -3.703125 10.59960938 C-4.8478125 11.7065918 -4.8478125 11.7065918 -6.015625 12.8359375 C-7.1603125 13.96032227 -7.1603125 13.96032227 -8.328125 15.10742188 C-10.21743339 16.96130573 -12.11337706 18.80784819 -14.015625 20.6484375 C-14.83546875 20.22691406 -15.6553125 19.80539063 -16.5 19.37109375 C-17.57765625 18.82324219 -18.6553125 18.27539062 -19.765625 17.7109375 C-20.83296875 17.16566406 -21.9003125 16.62039062 -23 16.05859375 C-30.93516574 12.34797868 -41.57134037 12.28234766 -49.953125 14.7734375 C-58.10810237 18.05382313 -65.19360672 24.2673219 -69.2734375 32.046875 C-73.28908003 41.62263796 -73.65484963 52.88869872 -70.015625 62.6484375 C-65.54830566 71.05405152 -58.79828015 78.39554609 -49.82421875 81.98828125 C-39.84132988 84.33474609 -27.98218299 83.86840553 -19.015625 78.6484375 C-11.64820265 73.34813365 -8.57866201 68.86190412 -4.015625 60.6484375 C-15.235625 60.6484375 -26.455625 60.6484375 -38.015625 60.6484375 C-38.015625 53.0584375 -38.015625 45.4684375 -38.015625 37.6484375 C-18.215625 37.6484375 1.584375 37.6484375 21.984375 37.6484375 C25.72899945 52.62693531 21.00387688 67.05151175 14.02734375 80.3203125 C4.82017992 95.31936333 -8.95110325 103.87641459 -25.828125 107.9609375 C-42.24024865 110.66535852 -57.76833854 108.11665851 -71.55859375 98.5234375 C-84.40889666 88.71716501 -94.25322018 75.99558962 -97.015625 59.6484375 C-98.47678216 39.23657576 -95.70005327 22.95045186 -82.203125 6.8359375 C-59.16652775 -17.70980099 -26.99890695 -16.85524982 0 0 Z " fill="#4386F4" transform="translate(150.015625,64.3515625)"/>
<path d="M0 0 C0.65484375 0.54398438 1.3096875 1.08796875 1.984375 1.6484375 C1.984375 4.6484375 1.984375 4.6484375 0.515625 6.45776367 C-0.1546875 7.11236572 -0.825 7.76696777 -1.515625 8.44140625 C-2.2375 9.15361328 -2.959375 9.86582031 -3.703125 10.59960938 C-4.8478125 11.7065918 -4.8478125 11.7065918 -6.015625 12.8359375 C-7.1603125 13.96032227 -7.1603125 13.96032227 -8.328125 15.10742188 C-10.21743339 16.96130573 -12.11337706 18.80784819 -14.015625 20.6484375 C-14.83546875 20.22691406 -15.6553125 19.80539063 -16.5 19.37109375 C-17.57765625 18.82324219 -18.6553125 18.27539062 -19.765625 17.7109375 C-20.83296875 17.16566406 -21.9003125 16.62039062 -23 16.05859375 C-30.93516574 12.34797868 -41.57134037 12.28234766 -49.953125 14.7734375 C-58.95294921 18.39366754 -66.40575584 25.45377953 -70.390625 34.2734375 C-71.79590798 38.23677464 -72.06216727 41.49984462 -71.765625 45.640625 C-70.76288316 59.70675956 -70.76288316 59.70675956 -73.29150391 63.62597656 C-76.97780289 67.46391673 -81.37376026 70.11794458 -86.015625 72.6484375 C-87.68248592 73.64811367 -89.34923953 74.64796898 -91.015625 75.6484375 C-91.64683636 74.29715493 -92.27022335 72.94221703 -92.890625 71.5859375 C-93.23867187 70.83183594 -93.58671875 70.07773438 -93.9453125 69.30078125 C-99.10695118 56.50971315 -99.21184208 39.47099457 -94.33984375 26.49609375 C-86.03329413 8.6333366 -73.92947725 -3.18896653 -55.50390625 -10.32421875 C-35.93435194 -16.61338792 -16.76910801 -10.46884991 0 0 Z " fill="#EA4336" transform="translate(150.015625,64.3515625)"/>
<path d="M0 0 C1.48019816 1.9590858 2.94521988 3.92223741 4.359375 5.9296875 C9.65813254 13.3419944 15.8886559 19.76916197 25 22 C33.34461669 22.81208782 40.56292449 22.93500579 48.3125 19.4375 C51.15625 18.3125 51.15625 18.3125 54 18 C58.64402375 20.29902166 62.19242794 23.52661771 66 27 C67.39833957 28.04579711 68.81152032 29.07264074 70.25 30.0625 C71.1575 30.701875 72.065 31.34125 73 32 C71.49236765 36.52289705 67.98276536 38.76642213 64 41 C47.22234595 48.60237449 30.17989752 50.91751324 12.6953125 44.546875 C-0.26080142 39.36975295 -10.88528262 29.92138656 -18 18 C-18.33 17.01 -18.66 16.02 -19 15 C-16.39759636 12.87283345 -13.79277604 10.74864719 -11.1875 8.625 C-10.44951172 8.02171875 -9.71152344 7.4184375 -8.95117188 6.796875 C-8.23896484 6.21679688 -7.52675781 5.63671875 -6.79296875 5.0390625 C-6.1383667 4.50490723 -5.48376465 3.97075195 -4.80932617 3.42041016 C-3.26198226 2.20566898 -1.63680796 1.09120531 0 0 Z " fill="#36A856" transform="translate(78,125)"/>
<path d="M0 0 C4.84940536 1.55180972 8.28974539 4.34758404 12.1875 7.5 C13.13012695 8.24830078 13.13012695 8.24830078 14.09179688 9.01171875 C16.49233557 10.92701487 18.82686659 12.82686659 21 15 C20.70792486 16.34297468 20.36766394 17.67572204 20 19 C20.07561823 20.53632443 20.21186676 22.07035649 20.39453125 23.59765625 C21.5945447 37.51577184 21.5945447 37.51577184 18.7109375 42.00830078 C15.03330476 45.83299526 10.62845458 48.47681757 6 51 C4.33313908 51.99967617 2.66638547 52.99953148 1 54 C0.36878864 52.64871743 -0.25459835 51.29377953 -0.875 49.9375 C-1.22304688 49.18339844 -1.57109375 48.42929688 -1.9296875 47.65234375 C-4.76600437 40.62366069 -5.38540981 34.37190352 -5.375 26.875 C-5.37556396 25.85833252 -5.37612793 24.84166504 -5.37670898 23.79418945 C-5.25099289 15.17336307 -3.89248153 7.78496305 0 0 Z " fill="#FDB905" transform="translate(58,86)"/>
</svg>
