<svg xmlns="http://www.w3.org/2000/svg" xmlns:xlink="http://www.w3.org/1999/xlink" width="500" zoomAndPan="magnify" viewBox="0 0 375 374.999991" height="500" preserveAspectRatio="xMidYMid meet" version="1.0"><defs><g/><clipPath id="ec512d3528"><rect x="0" width="108" y="0" height="70"/></clipPath><clipPath id="8303af76ad"><path d="M 0.601562 34 L 44 34 L 44 107 L 0.601562 107 Z M 0.601562 34 " clip-rule="nonzero"/></clipPath><clipPath id="dda19afe42"><rect x="0" width="117" y="0" height="145"/></clipPath><clipPath id="505a1a29e5"><path d="M 284.066406 125.289062 L 311.066406 125.289062 L 311.066406 152.289062 L 284.066406 152.289062 Z M 284.066406 125.289062 " clip-rule="nonzero"/></clipPath><clipPath id="9b4532c680"><path d="M 63.390625 187.5 L 90.390625 187.5 L 90.390625 214.5 L 63.390625 214.5 Z M 63.390625 187.5 " clip-rule="nonzero"/></clipPath><clipPath id="d412fa7aec"><rect x="0" width="126" y="0" height="13"/></clipPath></defs><rect x="-37.5" width="450" fill="#ffffff" y="-37.499999" height="449.999989" fill-opacity="1"/><rect x="-37.5" width="450" fill="#e7d1ff" y="-37.499999" height="449.999989" fill-opacity="1"/><g fill="#2a4aa1" fill-opacity="1"><g transform="translate(111.744153, 248.424008)"><g><path d="M 0.4375 -28.078125 C 0.4375 -29.597656 1.171875 -30.359375 2.640625 -30.359375 L 5.171875 -30.359375 L 5.265625 -34.046875 C 5.265625 -37.210938 5.976562 -39.773438 7.40625 -41.734375 C 8.84375 -43.691406 10.660156 -45.125 12.859375 -46.03125 C 15.054688 -46.9375 17.234375 -47.390625 19.390625 -47.390625 C 22.734375 -47.390625 25.148438 -47.082031 26.640625 -46.46875 C 28.128906 -45.851562 28.988281 -44.960938 29.21875 -43.796875 C 29.457031 -42.628906 29.285156 -41.132812 28.703125 -39.3125 C 28.117188 -37.5625 27.519531 -36.40625 26.90625 -35.84375 C 26.289062 -35.289062 25.570312 -35.015625 24.75 -35.015625 C 23.988281 -35.015625 23.390625 -35.410156 22.953125 -36.203125 C 22.515625 -36.992188 22.117188 -37.914062 21.765625 -38.96875 C 21.410156 -40.019531 20.96875 -40.941406 20.4375 -41.734375 C 19.914062 -42.523438 19.160156 -42.921875 18.171875 -42.921875 C 17.234375 -42.921875 16.410156 -42.597656 15.703125 -41.953125 C 15.003906 -41.304688 14.65625 -40.367188 14.65625 -39.140625 C 14.65625 -37.972656 14.960938 -36.992188 15.578125 -36.203125 C 16.191406 -35.410156 16.863281 -34.585938 17.59375 -33.734375 C 18.320312 -32.890625 18.835938 -31.765625 19.140625 -30.359375 L 22.03125 -30.359375 C 23.488281 -30.359375 24.21875 -29.597656 24.21875 -28.078125 C 24.21875 -26.617188 23.488281 -25.890625 22.03125 -25.890625 L 19.3125 -25.890625 L 19.3125 -11.5 C 19.3125 -9.394531 19.457031 -7.800781 19.75 -6.71875 C 20.039062 -5.632812 20.390625 -4.84375 20.796875 -4.34375 C 21.210938 -3.84375 21.566406 -3.429688 21.859375 -3.109375 C 22.148438 -2.796875 22.296875 -2.316406 22.296875 -1.671875 C 22.296875 -0.785156 21.957031 -0.195312 21.28125 0.09375 C 20.613281 0.382812 19.78125 0.53125 18.78125 0.53125 C 17.664062 0.53125 16.507812 0.441406 15.3125 0.265625 C 14.113281 0.0859375 13.078125 0 12.203125 0 C 11.328125 0 10.285156 0.0859375 9.078125 0.265625 C 7.878906 0.441406 6.753906 0.53125 5.703125 0.53125 C 4.710938 0.53125 3.878906 0.382812 3.203125 0.09375 C 2.523438 -0.195312 2.1875 -0.785156 2.1875 -1.671875 C 2.1875 -2.316406 2.332031 -2.796875 2.625 -3.109375 C 2.925781 -3.429688 3.28125 -3.84375 3.6875 -4.34375 C 4.09375 -4.84375 4.441406 -5.617188 4.734375 -6.671875 C 5.023438 -7.722656 5.171875 -9.273438 5.171875 -11.328125 L 5.171875 -25.890625 L 2.640625 -25.890625 C 1.171875 -25.890625 0.4375 -26.617188 0.4375 -28.078125 Z M 0.4375 -28.078125 "/></g></g></g><g fill="#2a4aa1" fill-opacity="1"><g transform="translate(141.144286, 248.424008)"><g><path d="M 10.890625 0 C 10.003906 0 8.960938 0.0859375 7.765625 0.265625 C 6.566406 0.441406 5.441406 0.53125 4.390625 0.53125 C 3.390625 0.53125 2.550781 0.382812 1.875 0.09375 C 1.207031 -0.195312 0.875 -0.785156 0.875 -1.671875 C 0.875 -2.316406 1.019531 -2.796875 1.3125 -3.109375 C 1.601562 -3.429688 1.953125 -3.84375 2.359375 -4.34375 C 2.773438 -4.84375 3.128906 -5.617188 3.421875 -6.671875 C 3.710938 -7.722656 3.859375 -9.273438 3.859375 -11.328125 C 3.859375 -13.316406 3.859375 -15.625 3.859375 -18.25 C 3.859375 -20.882812 3.875 -23.503906 3.90625 -26.109375 C 3.9375 -28.710938 3.953125 -30.960938 3.953125 -32.859375 C 3.953125 -34.765625 3.953125 -35.984375 3.953125 -36.515625 C 3.953125 -38.085938 3.703125 -39.179688 3.203125 -39.796875 C 2.703125 -40.410156 2.203125 -40.894531 1.703125 -41.25 C 1.210938 -41.601562 0.96875 -42.160156 0.96875 -42.921875 C 0.96875 -43.796875 1.257812 -44.394531 1.84375 -44.71875 C 2.425781 -45.039062 3.257812 -45.316406 4.34375 -45.546875 C 5.425781 -45.785156 6.726562 -46.164062 8.25 -46.6875 C 10.125 -47.394531 11.410156 -48.023438 12.109375 -48.578125 C 12.816406 -49.128906 13.34375 -49.582031 13.6875 -49.9375 C 14.039062 -50.289062 14.597656 -50.46875 15.359375 -50.46875 C 16.410156 -50.46875 17.109375 -50 17.453125 -49.0625 C 17.804688 -48.125 17.984375 -47.007812 17.984375 -45.71875 L 17.984375 -11.328125 C 17.984375 -9.273438 18.128906 -7.722656 18.421875 -6.671875 C 18.722656 -5.617188 19.078125 -4.84375 19.484375 -4.34375 C 19.890625 -3.84375 20.238281 -3.429688 20.53125 -3.109375 C 20.820312 -2.796875 20.96875 -2.316406 20.96875 -1.671875 C 20.96875 -0.785156 20.628906 -0.195312 19.953125 0.09375 C 19.285156 0.382812 18.457031 0.53125 17.46875 0.53125 C 16.351562 0.53125 15.195312 0.441406 14 0.265625 C 12.800781 0.0859375 11.765625 0 10.890625 0 Z M 10.890625 0 "/></g></g></g><g fill="#2a4aa1" fill-opacity="1"><g transform="translate(162.645867, 248.424008)"><g><path d="M 20.796875 0.53125 C 14.953125 0.53125 10.316406 -1.0625 6.890625 -4.25 C 3.460938 -7.445312 1.75 -11.878906 1.75 -17.546875 C 1.75 -23.285156 3.460938 -27.734375 6.890625 -30.890625 C 10.316406 -34.054688 14.953125 -35.640625 20.796875 -35.640625 C 26.648438 -35.640625 31.285156 -34.054688 34.703125 -30.890625 C 38.128906 -27.734375 39.84375 -23.285156 39.84375 -17.546875 C 39.84375 -11.878906 38.128906 -7.445312 34.703125 -4.25 C 31.285156 -1.0625 26.648438 0.53125 20.796875 0.53125 Z M 16.234375 -17.546875 C 16.234375 -15.148438 16.363281 -12.941406 16.625 -10.921875 C 16.894531 -8.910156 17.363281 -7.316406 18.03125 -6.140625 C 18.707031 -4.972656 19.628906 -4.390625 20.796875 -4.390625 C 22.023438 -4.390625 22.972656 -4.972656 23.640625 -6.140625 C 24.316406 -7.316406 24.769531 -8.910156 25 -10.921875 C 25.238281 -12.941406 25.359375 -15.148438 25.359375 -17.546875 C 25.359375 -20.003906 25.238281 -22.226562 25 -24.21875 C 24.769531 -26.207031 24.316406 -27.785156 23.640625 -28.953125 C 22.972656 -30.128906 22.023438 -30.71875 20.796875 -30.71875 C 19.628906 -30.71875 18.707031 -30.128906 18.03125 -28.953125 C 17.363281 -27.785156 16.894531 -26.207031 16.625 -24.21875 C 16.363281 -22.226562 16.234375 -20.003906 16.234375 -17.546875 Z M 16.234375 -17.546875 "/></g></g></g><g fill="#2a4aa1" fill-opacity="1"><g transform="translate(203.893827, 248.424008)"><g><path d="M 7.8125 -21.328125 C 6.695312 -23.898438 5.6875 -25.84375 4.78125 -27.15625 C 3.875 -28.476562 3.097656 -29.457031 2.453125 -30.09375 C 1.804688 -30.738281 1.304688 -31.28125 0.953125 -31.71875 C 0.609375 -32.164062 0.4375 -32.738281 0.4375 -33.4375 C 0.4375 -34.3125 0.785156 -34.894531 1.484375 -35.1875 C 2.191406 -35.488281 3.039062 -35.640625 4.03125 -35.640625 C 5.144531 -35.640625 6.316406 -35.550781 7.546875 -35.375 C 8.773438 -35.195312 9.828125 -35.109375 10.703125 -35.109375 C 11.816406 -35.109375 13.046875 -35.195312 14.390625 -35.375 C 15.734375 -35.550781 16.960938 -35.640625 18.078125 -35.640625 C 19.128906 -35.640625 20.003906 -35.488281 20.703125 -35.1875 C 21.410156 -34.894531 21.765625 -34.3125 21.765625 -33.4375 C 21.765625 -32.613281 21.515625 -32.023438 21.015625 -31.671875 C 20.523438 -31.328125 20.28125 -30.628906 20.28125 -29.578125 C 20.28125 -28.117188 20.660156 -26.347656 21.421875 -24.265625 C 22.179688 -22.191406 22.941406 -20.304688 23.703125 -18.609375 C 23.992188 -18.023438 24.285156 -17.742188 24.578125 -17.765625 C 24.867188 -17.796875 25.128906 -18.101562 25.359375 -18.6875 C 25.828125 -19.914062 26.351562 -21.394531 26.9375 -23.125 C 27.53125 -24.851562 28.144531 -26.59375 28.78125 -28.34375 C 29.425781 -30.101562 30.015625 -31.625 30.546875 -32.90625 C 30.835938 -33.613281 31.15625 -34.097656 31.5 -34.359375 C 31.851562 -34.617188 32.238281 -34.75 32.65625 -34.75 C 33 -34.75 33.347656 -34.617188 33.703125 -34.359375 C 34.054688 -34.097656 34.378906 -33.585938 34.671875 -32.828125 C 35.191406 -31.535156 35.742188 -30.039062 36.328125 -28.34375 C 36.921875 -26.644531 37.523438 -24.960938 38.140625 -23.296875 C 38.753906 -21.628906 39.265625 -20.179688 39.671875 -18.953125 C 39.898438 -18.367188 40.191406 -18.0625 40.546875 -18.03125 C 40.898438 -18 41.191406 -18.28125 41.421875 -18.875 C 42.242188 -20.6875 43.09375 -22.613281 43.96875 -24.65625 C 44.84375 -26.707031 45.28125 -28.226562 45.28125 -29.21875 C 45.28125 -29.925781 45.085938 -30.515625 44.703125 -30.984375 C 44.328125 -31.453125 43.945312 -31.890625 43.5625 -32.296875 C 43.1875 -32.703125 43 -33.171875 43 -33.703125 C 43 -34.523438 43.203125 -35.050781 43.609375 -35.28125 C 44.023438 -35.519531 44.523438 -35.640625 45.109375 -35.640625 C 45.816406 -35.640625 46.59375 -35.550781 47.4375 -35.375 C 48.28125 -35.195312 49 -35.109375 49.59375 -35.109375 C 50.113281 -35.109375 50.753906 -35.195312 51.515625 -35.375 C 52.273438 -35.550781 53.007812 -35.640625 53.71875 -35.640625 C 54.300781 -35.640625 54.796875 -35.503906 55.203125 -35.234375 C 55.609375 -34.972656 55.8125 -34.460938 55.8125 -33.703125 C 55.8125 -33.171875 55.609375 -32.710938 55.203125 -32.328125 C 54.796875 -31.953125 54.222656 -31.425781 53.484375 -30.75 C 52.753906 -30.082031 51.90625 -29.046875 50.9375 -27.640625 C 49.976562 -26.242188 48.972656 -24.195312 47.921875 -21.5 L 44.9375 -14.75 C 44.695312 -14.21875 44.300781 -13.289062 43.75 -11.96875 C 43.195312 -10.65625 42.566406 -9.179688 41.859375 -7.546875 C 41.160156 -5.910156 40.488281 -4.300781 39.84375 -2.71875 C 38.96875 -0.613281 37.972656 0.4375 36.859375 0.4375 C 35.804688 0.4375 34.785156 -0.585938 33.796875 -2.640625 C 32.972656 -4.453125 32.117188 -6.304688 31.234375 -8.203125 C 30.359375 -10.109375 29.628906 -11.703125 29.046875 -12.984375 C 28.816406 -13.628906 28.539062 -13.953125 28.21875 -13.953125 C 27.894531 -13.953125 27.585938 -13.628906 27.296875 -12.984375 C 26.710938 -11.703125 25.976562 -10.09375 25.09375 -8.15625 C 24.21875 -6.226562 23.375 -4.359375 22.5625 -2.546875 C 21.675781 -0.492188 20.648438 0.53125 19.484375 0.53125 C 18.367188 0.53125 17.316406 -0.492188 16.328125 -2.546875 C 15.566406 -4.296875 14.734375 -6.148438 13.828125 -8.109375 C 12.921875 -10.078125 12.054688 -11.984375 11.234375 -13.828125 C 10.410156 -15.671875 9.691406 -17.265625 9.078125 -18.609375 C 8.460938 -19.953125 8.039062 -20.859375 7.8125 -21.328125 Z M 7.8125 -21.328125 "/></g></g></g><g transform="matrix(1, 0, 0, 1, 93, 142)"><g clip-path="url(#ec512d3528)"><g fill="#2a4aa1" fill-opacity="1"><g transform="translate(0.678976, 54.094303)"><g><path d="M 0.859375 -1.640625 C 0.859375 -2.273438 1.003906 -2.75 1.296875 -3.0625 C 1.585938 -3.382812 1.9375 -3.789062 2.34375 -4.28125 C 2.75 -4.78125 3.09375 -5.550781 3.375 -6.59375 C 3.664062 -7.632812 3.8125 -9.164062 3.8125 -11.1875 C 3.8125 -13.84375 3.828125 -15.757812 3.859375 -16.9375 C 3.890625 -18.125 3.90625 -18.992188 3.90625 -19.546875 C 3.90625 -20.097656 3.90625 -20.71875 3.90625 -21.40625 C 3.90625 -22.96875 3.65625 -24.050781 3.15625 -24.65625 C 2.664062 -25.269531 2.175781 -25.75 1.6875 -26.09375 C 1.195312 -26.4375 0.953125 -26.984375 0.953125 -27.734375 C 0.953125 -28.609375 1.238281 -29.203125 1.8125 -29.515625 C 2.394531 -29.835938 3.21875 -30.113281 4.28125 -30.34375 C 5.351562 -30.570312 6.644531 -30.945312 8.15625 -31.46875 C 10 -32.164062 11.265625 -32.785156 11.953125 -33.328125 C 12.648438 -33.878906 13.171875 -34.328125 13.515625 -34.671875 C 13.867188 -35.015625 14.421875 -35.1875 15.171875 -35.1875 C 16.210938 -35.1875 16.90625 -34.722656 17.25 -33.796875 C 17.59375 -32.878906 17.765625 -31.785156 17.765625 -30.515625 L 17.765625 -30.171875 C 17.765625 -28.722656 17.789062 -28.015625 17.84375 -28.046875 C 17.90625 -28.078125 18.316406 -28.726562 19.078125 -30 C 20.054688 -31.675781 21.425781 -32.957031 23.1875 -33.84375 C 24.945312 -34.738281 26.640625 -35.1875 28.265625 -35.1875 C 31.441406 -35.1875 33.488281 -34.507812 34.40625 -33.15625 C 35.332031 -31.800781 35.363281 -29.820312 34.5 -27.21875 C 33.8125 -25.132812 33.191406 -23.703125 32.640625 -22.921875 C 32.085938 -22.148438 31.550781 -21.765625 31.03125 -21.765625 C 30.457031 -21.765625 29.820312 -22.109375 29.125 -22.796875 C 28.4375 -23.492188 27.671875 -24.171875 26.828125 -24.828125 C 25.992188 -25.492188 24.96875 -25.828125 23.75 -25.828125 C 23.0625 -25.828125 22.238281 -25.597656 21.28125 -25.140625 C 20.320312 -24.679688 19.492188 -23.84375 18.796875 -22.625 C 18.109375 -21.414062 17.765625 -19.710938 17.765625 -17.515625 L 17.765625 -11.1875 C 17.765625 -9.164062 17.910156 -7.632812 18.203125 -6.59375 C 18.492188 -5.550781 18.835938 -4.78125 19.234375 -4.28125 C 19.640625 -3.789062 19.988281 -3.382812 20.28125 -3.0625 C 20.570312 -2.75 20.71875 -2.273438 20.71875 -1.640625 C 20.71875 -0.773438 20.382812 -0.203125 19.71875 0.078125 C 19.050781 0.367188 18.226562 0.515625 17.25 0.515625 C 16.15625 0.515625 15.015625 0.425781 13.828125 0.25 C 12.640625 0.0820312 11.613281 0 10.75 0 C 9.882812 0 8.859375 0.0820312 7.671875 0.25 C 6.484375 0.425781 5.367188 0.515625 4.328125 0.515625 C 3.347656 0.515625 2.523438 0.367188 1.859375 0.078125 C 1.191406 -0.203125 0.859375 -0.773438 0.859375 -1.640625 Z M 0.859375 -1.640625 "/></g></g></g><g fill="#2a4aa1" fill-opacity="1"><g transform="translate(33.529247, 54.094303)"><g><path d="M 20.546875 0.515625 C 14.765625 0.515625 10.179688 -1.054688 6.796875 -4.203125 C 3.421875 -7.347656 1.734375 -11.726562 1.734375 -17.34375 C 1.734375 -23 3.421875 -27.382812 6.796875 -30.5 C 10.179688 -33.625 14.765625 -35.1875 20.546875 -35.1875 C 26.328125 -35.1875 30.90625 -33.625 34.28125 -30.5 C 37.664062 -27.382812 39.359375 -23 39.359375 -17.34375 C 39.359375 -11.726562 37.664062 -7.347656 34.28125 -4.203125 C 30.90625 -1.054688 26.328125 0.515625 20.546875 0.515625 Z M 16.03125 -17.34375 C 16.03125 -14.96875 16.160156 -12.78125 16.421875 -10.78125 C 16.679688 -8.789062 17.144531 -7.21875 17.8125 -6.0625 C 18.476562 -4.90625 19.390625 -4.328125 20.546875 -4.328125 C 21.753906 -4.328125 22.691406 -4.90625 23.359375 -6.0625 C 24.023438 -7.21875 24.472656 -8.789062 24.703125 -10.78125 C 24.929688 -12.78125 25.046875 -14.96875 25.046875 -17.34375 C 25.046875 -19.769531 24.929688 -21.960938 24.703125 -23.921875 C 24.472656 -25.890625 24.023438 -27.453125 23.359375 -28.609375 C 22.691406 -29.765625 21.753906 -30.34375 20.546875 -30.34375 C 19.390625 -30.34375 18.476562 -29.765625 17.8125 -28.609375 C 17.144531 -27.453125 16.679688 -25.890625 16.421875 -23.921875 C 16.160156 -21.960938 16.03125 -19.769531 16.03125 -17.34375 Z M 16.03125 -17.34375 "/></g></g></g><g fill="#2a4aa1" fill-opacity="1"><g transform="translate(71.060071, 54.094303)"><g><path d="M 1.734375 -8.328125 C 1.734375 -9.484375 2.066406 -10.40625 2.734375 -11.09375 C 3.398438 -11.789062 4.367188 -12.140625 5.640625 -12.140625 C 6.734375 -12.140625 7.625 -11.734375 8.3125 -10.921875 C 9.007812 -10.109375 9.734375 -9.179688 10.484375 -8.140625 C 11.234375 -7.109375 12.1875 -6.1875 13.34375 -5.375 C 14.5 -4.5625 16.0625 -4.15625 18.03125 -4.15625 C 19.53125 -4.15625 20.710938 -4.3125 21.578125 -4.625 C 22.453125 -4.945312 22.890625 -5.6875 22.890625 -6.84375 C 22.890625 -7.769531 22.378906 -8.519531 21.359375 -9.09375 C 20.347656 -9.675781 19.0625 -10.210938 17.5 -10.703125 C 15.945312 -11.191406 14.285156 -11.738281 12.515625 -12.34375 C 10.753906 -12.957031 9.09375 -13.722656 7.53125 -14.640625 C 5.976562 -15.566406 4.695312 -16.765625 3.6875 -18.234375 C 2.675781 -19.710938 2.171875 -21.582031 2.171875 -23.84375 C 2.171875 -26.382812 2.75 -28.421875 3.90625 -29.953125 C 5.0625 -31.484375 6.503906 -32.625 8.234375 -33.375 C 9.972656 -34.125 11.691406 -34.613281 13.390625 -34.84375 C 15.097656 -35.070312 16.5 -35.1875 17.59375 -35.1875 C 20.539062 -35.1875 23.285156 -34.835938 25.828125 -34.140625 C 28.367188 -33.453125 30.421875 -32.429688 31.984375 -31.078125 C 33.546875 -29.722656 34.328125 -28.0625 34.328125 -26.09375 C 34.328125 -25.113281 33.960938 -24.273438 33.234375 -23.578125 C 32.515625 -22.878906 31.664062 -22.53125 30.6875 -22.53125 C 29.1875 -22.53125 27.972656 -22.945312 27.046875 -23.78125 C 26.117188 -24.625 25.28125 -25.582031 24.53125 -26.65625 C 23.78125 -27.726562 22.910156 -28.679688 21.921875 -29.515625 C 20.941406 -30.359375 19.675781 -30.78125 18.125 -30.78125 C 16.5625 -30.78125 15.53125 -30.414062 15.03125 -29.6875 C 14.539062 -28.96875 14.296875 -28.234375 14.296875 -27.484375 C 14.296875 -26.378906 14.785156 -25.535156 15.765625 -24.953125 C 16.753906 -24.378906 18.03125 -23.90625 19.59375 -23.53125 C 21.15625 -23.15625 22.800781 -22.734375 24.53125 -22.265625 C 26.269531 -21.804688 27.914062 -21.1875 29.46875 -20.40625 C 31.03125 -19.632812 32.300781 -18.539062 33.28125 -17.125 C 34.269531 -15.707031 34.765625 -13.84375 34.765625 -11.53125 C 34.765625 -8.582031 33.910156 -6.226562 32.203125 -4.46875 C 30.492188 -2.707031 28.3125 -1.4375 25.65625 -0.65625 C 23 0.125 20.195312 0.515625 17.25 0.515625 C 16.039062 0.515625 14.566406 0.367188 12.828125 0.078125 C 11.097656 -0.203125 9.378906 -0.675781 7.671875 -1.34375 C 5.960938 -2.007812 4.546875 -2.90625 3.421875 -4.03125 C 2.296875 -5.15625 1.734375 -6.585938 1.734375 -8.328125 Z M 1.734375 -8.328125 "/></g></g></g></g></g><g transform="matrix(1, 0, 0, 1, 195, 89)"><g clip-path="url(#dda19afe42)"><g clip-path="url(#8303af76ad)"><g fill="#2a4aa1" fill-opacity="1"><g transform="translate(0.813527, 106.571052)"><g><path d="M 40.546875 -18.296875 C 41.253906 -18.296875 41.8125 -17.96875 42.21875 -17.3125 C 42.632812 -16.65625 42.84375 -15.753906 42.84375 -14.609375 C 42.84375 -12.421875 42.320312 -10.722656 41.28125 -9.515625 C 38.925781 -6.617188 36.351562 -4.238281 33.5625 -2.375 C 30.78125 -0.519531 27.582031 0.40625 23.96875 0.40625 C 12.800781 0.40625 7.21875 -7.441406 7.21875 -23.140625 C 7.21875 -25.546875 7.300781 -27.984375 7.46875 -30.453125 L 4.265625 -30.453125 C 2.628906 -30.453125 1.519531 -30.75 0.9375 -31.34375 C 0.363281 -31.945312 0.078125 -32.910156 0.078125 -34.234375 C 0.078125 -37.296875 1.3125 -38.828125 3.78125 -38.828125 L 8.453125 -38.828125 C 9.378906 -44.847656 10.800781 -50.347656 12.71875 -55.328125 C 14.632812 -60.304688 16.945312 -64.269531 19.65625 -67.21875 C 22.363281 -70.175781 25.28125 -71.65625 28.40625 -71.65625 C 30.695312 -71.65625 32.5 -70.640625 33.8125 -68.609375 C 35.125 -66.585938 35.78125 -64.046875 35.78125 -60.984375 C 35.78125 -52.503906 32.222656 -45.117188 25.109375 -38.828125 L 34.3125 -38.828125 C 35.1875 -38.828125 35.8125 -38.632812 36.1875 -38.25 C 36.570312 -37.863281 36.765625 -37.148438 36.765625 -36.109375 C 36.765625 -32.335938 33.675781 -30.453125 27.5 -30.453125 L 17.484375 -30.453125 C 17.367188 -27.710938 17.3125 -25.578125 17.3125 -24.046875 C 17.3125 -18.359375 17.984375 -14.363281 19.328125 -12.0625 C 20.671875 -9.769531 22.789062 -8.625 25.6875 -8.625 C 28.039062 -8.625 30.117188 -9.332031 31.921875 -10.75 C 33.734375 -12.175781 35.867188 -14.3125 38.328125 -17.15625 C 38.984375 -17.914062 39.722656 -18.296875 40.546875 -18.296875 Z M 26.1875 -63.78125 C 25.363281 -63.78125 24.445312 -62.753906 23.4375 -60.703125 C 22.425781 -58.648438 21.46875 -55.800781 20.5625 -52.15625 C 19.65625 -48.519531 18.898438 -44.484375 18.296875 -40.046875 C 21.523438 -42.835938 23.945312 -45.972656 25.5625 -49.453125 C 27.175781 -52.929688 27.984375 -56.09375 27.984375 -58.9375 C 27.984375 -62.164062 27.382812 -63.78125 26.1875 -63.78125 Z M 26.1875 -63.78125 "/></g></g></g></g><g fill="#2a4aa1" fill-opacity="1"><g transform="translate(33.728854, 106.571052)"><g><path d="M 40.546875 -18.296875 C 41.253906 -18.296875 41.8125 -17.96875 42.21875 -17.3125 C 42.632812 -16.65625 42.84375 -15.753906 42.84375 -14.609375 C 42.84375 -12.421875 42.320312 -10.722656 41.28125 -9.515625 C 39.257812 -7.054688 36.398438 -4.785156 32.703125 -2.703125 C 29.015625 -0.628906 25.0625 0.40625 20.84375 0.40625 C 15.101562 0.40625 10.644531 -1.148438 7.46875 -4.265625 C 4.289062 -7.390625 2.703125 -11.660156 2.703125 -17.078125 C 2.703125 -20.847656 3.492188 -24.359375 5.078125 -27.609375 C 6.671875 -30.867188 8.875 -33.457031 11.6875 -35.375 C 14.507812 -37.289062 17.703125 -38.25 21.265625 -38.25 C 24.429688 -38.25 26.972656 -37.300781 28.890625 -35.40625 C 30.804688 -33.519531 31.765625 -30.96875 31.765625 -27.75 C 31.765625 -23.96875 30.410156 -20.722656 27.703125 -18.015625 C 24.992188 -15.304688 20.410156 -13.160156 13.953125 -11.578125 C 15.316406 -9.054688 17.914062 -7.796875 21.75 -7.796875 C 24.207031 -7.796875 27.007812 -8.65625 30.15625 -10.375 C 33.3125 -12.101562 36.035156 -14.363281 38.328125 -17.15625 C 38.984375 -17.914062 39.722656 -18.296875 40.546875 -18.296875 Z M 19.859375 -30.203125 C 17.835938 -30.203125 16.128906 -29.023438 14.734375 -26.671875 C 13.335938 -24.316406 12.640625 -21.472656 12.640625 -18.140625 L 12.640625 -17.96875 C 15.867188 -18.738281 18.410156 -19.890625 20.265625 -21.421875 C 22.128906 -22.953125 23.0625 -24.726562 23.0625 -26.75 C 23.0625 -27.789062 22.773438 -28.625 22.203125 -29.25 C 21.628906 -29.882812 20.847656 -30.203125 19.859375 -30.203125 Z M 19.859375 -30.203125 "/></g></g></g><g fill="#2a4aa1" fill-opacity="1"><g transform="translate(66.644181, 106.571052)"><g><path d="M 9.765625 0.40625 C 7.679688 0.40625 6.21875 -0.6875 5.375 -2.875 C 4.53125 -5.0625 4.109375 -8.5625 4.109375 -13.375 C 4.109375 -20.488281 5.117188 -27.25 7.140625 -33.65625 C 7.628906 -35.238281 8.4375 -36.398438 9.5625 -37.140625 C 10.6875 -37.878906 12.257812 -38.25 14.28125 -38.25 C 15.375 -38.25 16.140625 -38.109375 16.578125 -37.828125 C 17.015625 -37.554688 17.234375 -37.039062 17.234375 -36.28125 C 17.234375 -35.40625 16.820312 -33.4375 16 -30.375 C 15.457031 -28.175781 15.019531 -26.253906 14.6875 -24.609375 C 14.363281 -22.972656 14.09375 -20.953125 13.875 -18.546875 C 15.675781 -23.253906 17.695312 -27.082031 19.9375 -30.03125 C 22.1875 -32.988281 24.390625 -35.097656 26.546875 -36.359375 C 28.710938 -37.617188 30.695312 -38.25 32.5 -38.25 C 36.0625 -38.25 37.84375 -36.46875 37.84375 -32.90625 C 37.84375 -32.195312 37.59375 -30.476562 37.09375 -27.75 C 36.65625 -25.550781 36.4375 -24.179688 36.4375 -23.640625 C 36.4375 -21.722656 37.125 -20.765625 38.5 -20.765625 C 40.03125 -20.765625 42 -21.96875 44.40625 -24.375 C 45.113281 -25.082031 45.851562 -25.4375 46.625 -25.4375 C 47.332031 -25.4375 47.890625 -25.125 48.296875 -24.5 C 48.710938 -23.875 48.921875 -23.039062 48.921875 -22 C 48.921875 -19.96875 48.375 -18.378906 47.28125 -17.234375 C 45.75 -15.648438 43.957031 -14.296875 41.90625 -13.171875 C 39.851562 -12.046875 37.675781 -11.484375 35.375 -11.484375 C 32.476562 -11.484375 30.273438 -12.222656 28.765625 -13.703125 C 27.265625 -15.179688 26.515625 -17.179688 26.515625 -19.703125 C 26.515625 -20.523438 26.59375 -21.34375 26.75 -22.15625 C 26.863281 -23.25 26.921875 -23.988281 26.921875 -24.375 C 26.921875 -25.25 26.617188 -25.6875 26.015625 -25.6875 C 25.191406 -25.6875 24.109375 -24.769531 22.765625 -22.9375 C 21.429688 -21.101562 20.109375 -18.679688 18.796875 -15.671875 C 17.484375 -12.660156 16.414062 -9.488281 15.59375 -6.15625 C 14.988281 -3.582031 14.289062 -1.84375 13.5 -0.9375 C 12.707031 -0.0390625 11.460938 0.40625 9.765625 0.40625 Z M 9.765625 0.40625 "/></g></g></g></g></g><g clip-path="url(#505a1a29e5)"><path fill="#2a4aa1" d="M 311.285156 138.898438 C 301.078125 140.777344 299.554688 142.300781 297.675781 152.507812 C 295.796875 142.300781 294.273438 140.777344 284.066406 138.898438 C 294.273438 137.019531 295.796875 135.496094 297.675781 125.289062 C 299.554688 135.496094 301.078125 137.019531 311.285156 138.898438 Z M 311.285156 138.898438 " fill-opacity="1" fill-rule="nonzero"/></g><g clip-path="url(#9b4532c680)"><path fill="#2a4aa1" d="M 90.609375 201.109375 C 80.402344 202.988281 78.878906 204.511719 77 214.71875 C 75.121094 204.511719 73.597656 202.988281 63.390625 201.109375 C 73.597656 199.230469 75.121094 197.707031 77 187.5 C 78.878906 197.707031 80.402344 199.230469 90.609375 201.109375 Z M 90.609375 201.109375 " fill-opacity="1" fill-rule="nonzero"/></g><g transform="matrix(1, 0, 0, 1, 126, 255)"><g clip-path="url(#d412fa7aec)"><g fill="#2a4aa1" fill-opacity="1"><g transform="translate(1.086636, 9.831855)"><g><path d="M 3.09375 -6.859375 C 3.863281 -6.859375 4.453125 -6.664062 4.859375 -6.28125 C 5.265625 -5.90625 5.507812 -5.394531 5.59375 -4.75 L 4.21875 -4.75 C 4.175781 -5.101562 4.054688 -5.375 3.859375 -5.5625 C 3.660156 -5.757812 3.390625 -5.859375 3.046875 -5.859375 C 2.765625 -5.859375 2.535156 -5.789062 2.359375 -5.65625 C 2.191406 -5.519531 2.109375 -5.320312 2.109375 -5.0625 C 2.109375 -4.769531 2.210938 -4.539062 2.421875 -4.375 C 2.628906 -4.21875 3.003906 -4.078125 3.546875 -3.953125 C 4.273438 -3.785156 4.8125 -3.53125 5.15625 -3.1875 C 5.507812 -2.84375 5.6875 -2.398438 5.6875 -1.859375 C 5.6875 -1.242188 5.441406 -0.753906 4.953125 -0.390625 C 4.472656 -0.0351562 3.890625 0.140625 3.203125 0.140625 C 2.378906 0.140625 1.722656 -0.0390625 1.234375 -0.40625 C 0.742188 -0.769531 0.46875 -1.296875 0.40625 -1.984375 L 1.78125 -1.984375 C 1.851562 -1.628906 2.015625 -1.351562 2.265625 -1.15625 C 2.523438 -0.96875 2.828125 -0.875 3.171875 -0.875 C 3.484375 -0.875 3.742188 -0.945312 3.953125 -1.09375 C 4.171875 -1.25 4.28125 -1.457031 4.28125 -1.71875 C 4.28125 -2 4.175781 -2.226562 3.96875 -2.40625 C 3.769531 -2.582031 3.425781 -2.726562 2.9375 -2.84375 C 2.175781 -3.03125 1.609375 -3.273438 1.234375 -3.578125 C 0.867188 -3.878906 0.6875 -4.316406 0.6875 -4.890625 C 0.6875 -5.492188 0.921875 -5.972656 1.390625 -6.328125 C 1.859375 -6.679688 2.425781 -6.859375 3.09375 -6.859375 Z M 3.09375 -6.859375 "/></g></g></g><g fill="#2a4aa1" fill-opacity="1"><g transform="translate(10.332827, 9.831855)"><g><path d="M 6.703125 -6.734375 L 6.703125 0 L 5.359375 0 L 5.359375 -2.765625 L 2.21875 -2.765625 L 2.21875 0 L 0.875 0 L 0.875 -6.734375 L 2.21875 -6.734375 L 2.21875 -3.828125 L 5.359375 -3.828125 L 5.359375 -6.734375 Z M 6.703125 -6.734375 "/></g></g></g><g fill="#2a4aa1" fill-opacity="1"><g transform="translate(20.983307, 9.831855)"><g><path d="M 2.21875 0 L 0.875 0 L 0.875 -6.734375 L 2.21875 -6.734375 Z M 2.21875 0 "/></g></g></g><g fill="#2a4aa1" fill-opacity="1"><g transform="translate(27.147877, 9.831855)"><g><path d="M 2.21875 -5.671875 L 2.21875 -3.90625 L 5.28125 -3.90625 L 5.28125 -2.84375 L 2.21875 -2.84375 L 2.21875 0 L 0.875 0 L 0.875 -6.734375 L 5.625 -6.734375 L 5.625 -5.671875 Z M 2.21875 -5.671875 "/></g></g></g><g fill="#2a4aa1" fill-opacity="1"><g transform="translate(36.247789, 9.831855)"><g><path d="M 6.125 -5.671875 L 3.84375 -5.671875 L 3.84375 0 L 2.5 0 L 2.5 -5.671875 L 0.21875 -5.671875 L 0.21875 -6.734375 L 6.125 -6.734375 Z M 6.125 -5.671875 "/></g></g></g><g fill="#2a4aa1" fill-opacity="1"><g transform="translate(45.640259, 9.831855)"><g/></g></g><g fill="#2a4aa1" fill-opacity="1"><g transform="translate(50.849135, 9.831855)"><g><path d="M 6.703125 -6.734375 L 6.703125 0 L 5.359375 0 L 5.359375 -2.765625 L 2.21875 -2.765625 L 2.21875 0 L 0.875 0 L 0.875 -6.734375 L 2.21875 -6.734375 L 2.21875 -3.828125 L 5.359375 -3.828125 L 5.359375 -6.734375 Z M 6.703125 -6.734375 "/></g></g></g><g fill="#2a4aa1" fill-opacity="1"><g transform="translate(61.499615, 9.831855)"><g><path d="M 4.515625 -2.03125 L 2.25 -2.03125 L 1.578125 0 L 0.140625 0 L 2.578125 -6.734375 L 4.265625 -6.734375 L 6.640625 0 L 5.171875 0 Z M 3.390625 -5.578125 L 2.59375 -3.09375 L 4.171875 -3.09375 Z M 3.390625 -5.578125 "/></g></g></g><g fill="#2a4aa1" fill-opacity="1"><g transform="translate(71.408941, 9.831855)"><g><path d="M 4.171875 -6.671875 C 4.710938 -6.617188 5.148438 -6.414062 5.484375 -6.0625 C 5.816406 -5.707031 5.984375 -5.226562 5.984375 -4.625 C 5.984375 -4.039062 5.8125 -3.570312 5.46875 -3.21875 C 5.125 -2.863281 4.691406 -2.648438 4.171875 -2.578125 C 3.890625 -2.546875 3.566406 -2.53125 3.203125 -2.53125 L 2.21875 -2.53125 L 2.21875 0 L 0.875 0 L 0.875 -6.734375 L 3.203125 -6.734375 C 3.578125 -6.734375 3.898438 -6.710938 4.171875 -6.671875 Z M 3.765625 -3.625 C 4.304688 -3.707031 4.578125 -4.039062 4.578125 -4.625 C 4.578125 -5.21875 4.304688 -5.554688 3.765625 -5.640625 C 3.617188 -5.660156 3.421875 -5.671875 3.171875 -5.671875 L 2.21875 -5.671875 L 2.21875 -3.59375 L 3.171875 -3.59375 C 3.421875 -3.59375 3.617188 -3.601562 3.765625 -3.625 Z M 3.765625 -3.625 "/></g></g></g><g fill="#2a4aa1" fill-opacity="1"><g transform="translate(80.801411, 9.831855)"><g><path d="M 4.171875 -6.671875 C 4.710938 -6.617188 5.148438 -6.414062 5.484375 -6.0625 C 5.816406 -5.707031 5.984375 -5.226562 5.984375 -4.625 C 5.984375 -4.039062 5.8125 -3.570312 5.46875 -3.21875 C 5.125 -2.863281 4.691406 -2.648438 4.171875 -2.578125 C 3.890625 -2.546875 3.566406 -2.53125 3.203125 -2.53125 L 2.21875 -2.53125 L 2.21875 0 L 0.875 0 L 0.875 -6.734375 L 3.203125 -6.734375 C 3.578125 -6.734375 3.898438 -6.710938 4.171875 -6.671875 Z M 3.765625 -3.625 C 4.304688 -3.707031 4.578125 -4.039062 4.578125 -4.625 C 4.578125 -5.21875 4.304688 -5.554688 3.765625 -5.640625 C 3.617188 -5.660156 3.421875 -5.671875 3.171875 -5.671875 L 2.21875 -5.671875 L 2.21875 -3.59375 L 3.171875 -3.59375 C 3.421875 -3.59375 3.617188 -3.601562 3.765625 -3.625 Z M 3.765625 -3.625 "/></g></g></g><g fill="#2a4aa1" fill-opacity="1"><g transform="translate(90.193882, 9.831855)"><g><path d="M 5.71875 -1.0625 L 5.71875 0 L 0.875 0 L 0.875 -6.734375 L 5.625 -6.734375 L 5.625 -5.671875 L 2.21875 -5.671875 L 2.21875 -3.90625 L 5.375 -3.90625 L 5.375 -2.84375 L 2.21875 -2.84375 L 2.21875 -1.0625 Z M 5.71875 -1.0625 "/></g></g></g><g fill="#2a4aa1" fill-opacity="1"><g transform="translate(99.518091, 9.831855)"><g><path d="M 6.78125 0 L 4.9375 0 L 2.171875 -5.109375 C 2.203125 -4.492188 2.21875 -3.804688 2.21875 -3.046875 L 2.21875 0 L 0.875 0 L 0.875 -6.734375 L 2.65625 -6.734375 L 5.484375 -1.515625 C 5.453125 -2.117188 5.4375 -2.828125 5.4375 -3.640625 L 5.4375 -6.734375 L 6.765625 -6.734375 Z M 6.78125 0 "/></g></g></g><g fill="#2a4aa1" fill-opacity="1"><g transform="translate(110.246578, 9.831855)"><g><path d="M 3.09375 -6.859375 C 3.863281 -6.859375 4.453125 -6.664062 4.859375 -6.28125 C 5.265625 -5.90625 5.507812 -5.394531 5.59375 -4.75 L 4.21875 -4.75 C 4.175781 -5.101562 4.054688 -5.375 3.859375 -5.5625 C 3.660156 -5.757812 3.390625 -5.859375 3.046875 -5.859375 C 2.765625 -5.859375 2.535156 -5.789062 2.359375 -5.65625 C 2.191406 -5.519531 2.109375 -5.320312 2.109375 -5.0625 C 2.109375 -4.769531 2.210938 -4.539062 2.421875 -4.375 C 2.628906 -4.21875 3.003906 -4.078125 3.546875 -3.953125 C 4.273438 -3.785156 4.8125 -3.53125 5.15625 -3.1875 C 5.507812 -2.84375 5.6875 -2.398438 5.6875 -1.859375 C 5.6875 -1.242188 5.441406 -0.753906 4.953125 -0.390625 C 4.472656 -0.0351562 3.890625 0.140625 3.203125 0.140625 C 2.378906 0.140625 1.722656 -0.0390625 1.234375 -0.40625 C 0.742188 -0.769531 0.46875 -1.296875 0.40625 -1.984375 L 1.78125 -1.984375 C 1.851562 -1.628906 2.015625 -1.351562 2.265625 -1.15625 C 2.523438 -0.96875 2.828125 -0.875 3.171875 -0.875 C 3.484375 -0.875 3.742188 -0.945312 3.953125 -1.09375 C 4.171875 -1.25 4.28125 -1.457031 4.28125 -1.71875 C 4.28125 -2 4.175781 -2.226562 3.96875 -2.40625 C 3.769531 -2.582031 3.425781 -2.726562 2.9375 -2.84375 C 2.175781 -3.03125 1.609375 -3.273438 1.234375 -3.578125 C 0.867188 -3.878906 0.6875 -4.316406 0.6875 -4.890625 C 0.6875 -5.492188 0.921875 -5.972656 1.390625 -6.328125 C 1.859375 -6.679688 2.425781 -6.859375 3.09375 -6.859375 Z M 3.09375 -6.859375 "/></g></g></g><g fill="#2a4aa1" fill-opacity="1"><g transform="translate(119.492769, 9.831855)"><g><path d="M 0.59375 -1.265625 C 0.75 -1.421875 0.945312 -1.5 1.1875 -1.5 C 1.425781 -1.5 1.625 -1.421875 1.78125 -1.265625 C 1.9375 -1.117188 2.015625 -0.925781 2.015625 -0.6875 C 2.015625 -0.445312 1.9375 -0.25 1.78125 -0.09375 C 1.625 0.0625 1.425781 0.140625 1.1875 0.140625 C 0.945312 0.140625 0.75 0.0625 0.59375 -0.09375 C 0.445312 -0.25 0.375 -0.445312 0.375 -0.6875 C 0.375 -0.925781 0.445312 -1.117188 0.59375 -1.265625 Z M 0.59375 -1.265625 "/></g></g></g></g></g></svg>